:SAMPLES-PER-SECOND 30
:FULLY-SPECIFIED
:DEGREES
338
root  -12.4491 40.9054 -8.29093 -45.1214 -88.7173 45.5833
RightUpLeg  -4.124 -10.3617 -10.4284
RightLeg  2.20282 -8.88547 2.75032
RightFoot  3.61902 -0.570905 4.53375
RightToes  0.00048216 0.542163 -0.142577
Spine  -7.15251 0.533337 0.835473
Spine1  21.8161 1.42494 -2.25916
HEad  -23.0135 -1.69284 6.16592
LeftShoulder1  8.78955 -15.8195 -39.2695
LeftArm  47.1143 37.9186 4.08374
LeftForeArm  -152.127 -71.1089 -156.336
LeftHand  -0.25398 0.0180481 5.50724
RightShoulder  4.26062 8.53511 29.4169
RightArm  44.5918 -35.9581 9.33893
RightForeArm  -175.044 76.227 143.764
RightHand  -5.60073 22.531 -23.4111
LeftUpLeg  -3.7107 4.85899 2.20729
LeftLeg  6.54131 9.31002 -2.31535
LeftFoot  -3.85096 0.0172221 -0.0372121
LeftToes  1.06246e-005 4.65855e-005 -8.18503e-006
339
root  -12.4861 40.9111 -8.38738 -52.619 -89.008 53.077
RightUpLeg  -4.1722 -10.2162 -10.1303
RightLeg  2.28558 -8.73097 2.77763
RightFoot  3.50549 -0.549433 4.39821
RightToes  0.00048216 0.542163 -0.142577
Spine  -7.21688 0.640387 0.994944
Spine1  22.0325 1.47943 -2.12435
HEad  -22.5486 -1.7174 5.81905
LeftShoulder1  8.82444 -15.7268 -39.6513
LeftArm  46.6462 37.8835 4.2246
LeftForeArm  -151.805 -70.9318 -156.601
LeftHand  -0.25398 0.0180481 5.50724
RightShoulder  4.17228 8.46622 28.8706
RightArm  43.7793 -36.8441 9.86626
RightForeArm  -172.677 75.9177 144.954
RightHand  -5.26884 22.1674 -22.3721
LeftUpLeg  -3.60971 5.03375 2.51394
LeftLeg  6.54857 9.38105 -2.28692
LeftFoot  -3.89542 0.0277119 -0.204525
LeftToes  1.06246e-005 4.65855e-005 -8.18503e-006
340
root  -12.5367 40.9191 -8.50408 -65.2869 -89.2474 65.7137
RightUpLeg  -4.15067 -10.0883 -9.83084
RightLeg  2.35876 -8.59122 2.82969
RightFoot  3.36589 -0.520546 4.20938
RightToes  0.00048216 0.542163 -0.142577
Spine  -7.27747 0.700786 1.13818
Spine1  22.2497 1.55048 -2.15488
HEad  -21.953 -1.48776 5.75434
LeftShoulder1  8.7843 -15.5738 -39.8015
LeftArm  46.1096 37.9238 4.30148
LeftForeArm  -151.75 -70.7241 -156.876
LeftHand  -0.25398 0.0180481 5.50724
RightShoulder  4.09831 8.37672 28.5024
RightArm  42.6373 -37.9924 10.4566
RightForeArm  -169.335 75.4546 146.599
RightHand  -4.78345 21.6458 -20.7969
LeftUpLeg  -3.44527 5.12258 2.80828
LeftLeg  6.51792 9.49948 -2.18673
LeftFoot  -3.91517 0.0428636 -0.442739
LeftToes  1.06246e-005 4.65855e-005 -8.18503e-006
341
root  -12.5907 40.9248 -8.63366 -93.0979 -89.4224 93.4475
RightUpLeg  -4.14651 -9.90944 -9.48479
RightLeg  2.53347 -8.44329 2.82145
RightFoot  3.19048 -0.486398 3.98379
RightToes  0.00048216 0.542163 -0.142577
Spine  -7.17649 0.763732 1.37394
Spine1  22.3317 1.70341 -2.40727
HEad  -21.3142 -1.1768 6.00266
LeftShoulder1  8.69298 -15.4074 -39.7288
LeftArm  45.4203 38.1914 4.32952
LeftForeArm  -151.241 -70.2797 -157.483
LeftHand  -0.25398 0.0180481 5.50724
RightShoulder  4.10488 8.32656 28.7088
RightArm  41.245 -39.4471 10.4008
RightForeArm  -164.464 74.4316 149.501
RightHand  -4.03561 20.692 -18.3151
LeftUpLeg  -3.20938 5.27926 3.15597
LeftLeg  6.49262 9.61663 -2.11513
LeftFoot  -3.94517 0.0616676 -0.735967
LeftToes  1.06246e-005 4.65855e-005 -8.18503e-006
342
root  -12.6552 40.9271 -8.77559 -130.293 -89.397 130.595
RightUpLeg  -4.22065 -9.72951 -9.12
RightLeg  2.82623 -8.30481 2.79551
RightFoot  2.95356 -0.452851 3.7703
RightToes  0.00048216 0.542163 -0.142577
Spine  -7.16326 0.828908 1.52099
Spine1  22.4976 1.79222 -2.46267
HEad  -20.6611 -0.920273 6.18271
LeftShoulder1  8.63391 -15.2346 -39.833
LeftArm  44.5357 38.7519 4.67992
LeftForeArm  -149.345 -69.0323 -159.079
LeftHand  -0.25398 0.0180481 5.50724
RightShoulder  4.14449 8.29733 29.1404
RightArm  39.4285 -41.3405 9.58611
RightForeArm  -156.302 72.1893 154.345
RightHand  -2.49735 18.5694 -12.4856
LeftUpLeg  -2.97651 5.57013 3.56769
LeftLeg  6.48056 9.63819 -2.12853
LeftFoot  -4.00095 0.0809377 -1.0345
LeftToes  1.06246e-005 4.65855e-005 -8.18503e-006
343
root  -12.7403 40.9298 -8.93757 -150.116 -89.2077 150.513
RightUpLeg  -4.42003 -9.62887 -8.79406
RightLeg  3.17845 -8.20368 2.82247
RightFoot  2.66139 -0.415275 3.52757
RightToes  0.00048216 0.542163 -0.142577
Spine  -7.54373 0.829208 1.4667
Spine1  22.9538 1.73884 -2.27825
HEad  -19.9723 -0.613733 6.17121
LeftShoulder1  8.61781 -15.0216 -40.2533
LeftArm  43.1221 39.6471 5.73583
LeftForeArm  -147.696 -66.3298 -161.805
LeftHand  -0.25398 0.0180481 5.50724
RightShoulder  4.14348 8.19566 29.4435
RightArm  36.5787 -43.6771 8.81159
RightForeArm  -144.435 68.2437 160.246
RightHand  -0.175345 15.8636 -1.47286
LeftUpLeg  -2.85864 5.87077 3.95207
LeftLeg  6.43627 9.59956 -2.16712
LeftFoot  -4.03402 0.0997504 -1.32378
LeftToes  1.06246e-005 4.65855e-005 -8.18503e-006
